<?xml version="1.0" encoding="UTF-8"?>
<svg id="Layer_2" data-name="Layer 2" xmlns="http://www.w3.org/2000/svg" viewBox="0 0 122.14 131.69">
  <defs>
    <style>
      .cls-1 {
        fill: #fee269;
        stroke: #000;
        stroke-miterlimit: 10;
        stroke-width: 2.5px;
      }

      .cls-2 {
        fill: #fcb856;
        opacity: 0;
      }
    </style>
  </defs>
  <g id="Avatars_final" data-name="Avatars final">
    <rect class="cls-2" width="122.14" height="131.69"/>
    <g id="Jane">
      <path class="cls-1" d="M104.26,71.01c0,16.89-9.7,31.5-23.83,38.6,14.09-1.02,26.4-5.05,35.03-11.21l-8.78-57.29-24.43-8.81-.26.94c13.28,7.36,22.27,21.52,22.27,37.78Z"/>
      <path class="cls-1" d="M17.91,71.01c0-16.26,8.99-30.41,22.27-37.78l-.26-.94-24.43,8.81-8.78,57.29c8.63,6.17,20.95,10.19,35.03,11.21-14.13-7.09-23.83-21.71-23.83-38.6Z"/>
      <path class="cls-1" d="M109.13,55.59c0-24.32-21.51-44.03-48.04-44.03S13.04,31.27,13.04,55.59c0,7.33,1.96,14.23,5.42,20.31-.36-2.23-.55-4.52-.55-6.86,0-3.96.54-7.79,1.54-11.44,5.01-12.34,21.75-21.42,41.63-21.42s36.61,9.07,41.63,21.42c1,3.64,1.54,7.48,1.54,11.44,0,2.33-.19,4.62-.55,6.86,3.45-6.08,5.42-12.98,5.42-20.31Z"/>
    </g>
  </g>
</svg>