<?xml version="1.0" encoding="UTF-8"?>
<svg id="Layer_2" data-name="Layer 2" xmlns="http://www.w3.org/2000/svg" viewBox="0 0 126.7 108.15">
  <defs>
    <style>
      .cls-1 {
        fill: #fff1b6;
        stroke-width: 5px;
      }

      .cls-1, .cls-2, .cls-3 {
        stroke: #000;
        stroke-miterlimit: 10;
      }

      .cls-2 {
        fill: none;
        stroke-linecap: round;
        stroke-width: 4px;
      }

      .cls-3 {
        stroke-width: 3px;
      }

      .cls-3, .cls-4 {
        fill: #231f20;
      }
    </style>
  </defs>
  <g id="Passengers">
    <g id="Solution">
      <g>
        <path class="cls-3" d="M80.98,6.36c-7.45,8.32-5.58,43.41,8.08,85.36,0,0,39.41,0,35.92-41.44-2.32-27.58-44.01-43.92-44.01-43.92Z"/>
        <path class="cls-3" d="M48.69,100.01L34.58,9.04S6.16,24.43,1.77,53.43c-4.39,29.01,46.92,46.58,46.92,46.58Z"/>
        <g>
          <circle class="cls-1" cx="63.6" cy="57.89" r="47.75"/>
          <g>
            <circle class="cls-4" cx="44.56" cy="51.2" r="6.43"/>
            <circle class="cls-4" cx="82.63" cy="51.2" r="6.43"/>
          </g>
          <path class="cls-2" d="M44.56,72.77s18.37,9.4,38.08,0"/>
        </g>
        <path class="cls-3" d="M16.88,43.46L59.81,8.12s-19.35-5.51-33.65,4.47c-14.3,9.98-9.28,30.87-9.28,30.87Z"/>
        <path class="cls-3" d="M39.7,10.14c1.64,8.14,34.75,23.2,71.35,35.65,0,0,2.54-25.91-16.59-39.19-19.14-13.28-54.76,3.53-54.76,3.53Z"/>
      </g>
    </g>
  </g>
</svg>